# xmcd CD database file
#
# Track frame offsets:
#	150
#	38122
#	67845
#	124865
#	162897
#	196482
#	223580
#	254582
#	300557
#
# Disc length: 4515 seconds
#
# Revision: 0
# Processed by: cddbd v1.5.1PL0 Copyright (c) Steve Scherf et al.
# Submitted via: CDex 1.51
#
DISCID=7c11a109
DTITLE=Hornflakes - Ten Frogs Waiting for Kisses
DYEAR=1991
DGENRE=Jazz
TTITLE0=Bat Stomp
TTITLE1=Summer '89
TTITLE2=Lennie's Pennies
TTITLE3=Ten Frogs Waiing for Kisses
TTITLE4=Amade's Nightmare
TTITLE5=Auf Leschi
TTITLE6=Horn Invstigation
TTITLE7=Tradition's Clearence Sale
TTITLE8=Blues for O.N.
EXTD=YEAR: 1991
EXTT0=
EXTT1=
EXTT2=
EXTT3=
EXTT4=
EXTT5=
EXTT6=
EXTT7=
EXTT8=
PLAYORDER=
